# xmcd
# Track frame offsets:
# 150
# 8677
# 14372
# 25727
# 31817
# 41687
# 47737
# 56317
# 60875
# 67902
# 73895
# 82022
# 91732
# 102722
# 109965
# 117222
# 124990
# 133487
# 141100
# 148817
# 156000
# 163387
# 170884
# 175510
#
# Disc length: 2410 seconds
# Revision: 0
# Processed by: cddbd v1.4PL0 Copyright (c) Steve Scherf et al.
# Submitted via: VisiTrax 2.9.5.181 - For more info visit www.synapsa.com
#
DISCID=53096818
DTITLE=Jackson, Clarence - Country Swingin' Slide Guitar Pickin'
DYEAR=2003
DGENRE=Country
TTITLE0=Clarence Jackson - Roadside Rag
TTITLE1=Clarence Jackson - B. Bowman Hop
TTITLE2=Clarence Jackson - Steel Guitar Rag
TTITLE3=Clarence Jackson - Cotton Fields
TTITLE4=Clarence Jackson - Steel Guitar Stomp
TTITLE5=Clarence Jackson - Ragged But Right
TTITLE6=Clarence Jackson - Rubber Dolly
TTITLE7=Clarence Jackson - Big Ball In Memphis
TTITLE8=Clarence Jackson - Two Different Worlds
TTITLE9=Clarence Jackson - Keep On the Sunny Side
TTITLE10=Clarence Jackson - Smitty Rides Again
TTITLE11=Clarence Jackson - Watermelon On The Vine
TTITLE12=Clarence Jackson - Pan Handle Rag
TTITLE13=Clarence Jackson - 900 Miles
TTITLE14=Clarence Jackson - John Henry
TTITLE15=Clarence Jackson - Maggie
TTITLE16=Clarence Jackson - Milk Cow Blues
TTITLE17=Clarence Jackson - Georgia Steel Guitar
TTITLE18=Clarence Jackson - Bonaparte's Retreat
TTITLE19=Clarence Jackson - Beach At Waikiki
TTITLE20=Clarence Jackson - You Are My Sunshine
TTITLE21=Clarence Jackson - Southland
TTITLE22=Clarence Jackson - I Ain't Gonna Work Here Tomorrow
TTITLE23=Clarence Jackson - Hilo March
EXTD=
EXTT0=
EXTT1=
EXTT2=
EXTT3=
EXTT4=
EXTT5=
EXTT6=
EXTT7=
EXTT8=
EXTT9=
EXTT10=
EXTT11=
EXTT12=
EXTT13=
EXTT14=
EXTT15=
EXTT16=
EXTT17=
EXTT18=
EXTT19=
EXTT20=
EXTT21=
EXTT22=
EXTT23=
PLAYORDER=
